<svg version="1.1" id="Layer_1" xmlns="http://www.w3.org/2000/svg" xmlns:xlink="http://www.w3.org/1999/xlink" x="0px" y="0px"
	 width="100%" viewBox="0 0 500 500" enable-background="new 0 0 500 500" xml:space="preserve">
<path fill="#FEFEFF" opacity="1.000000" stroke="none" 
	d="
M501.000000,182.000000 
	C501.000000,288.666656 501.000000,394.833282 501.000000,500.999939 
	C334.333405,500.999969 167.666794,500.999969 1.000146,501.000000 
	C1.000098,334.333435 1.000098,167.666870 1.000049,1.000236 
	C167.666519,1.000157 334.333038,1.000157 500.999786,1.000079 
	C501.000000,61.166668 501.000000,121.333336 501.000000,182.000000 
M240.311066,102.650291 
	C204.371643,107.153831 171.659302,138.675430 174.679611,166.251282 
	C182.645248,161.407074 190.826904,158.066284 200.038437,161.252426 
	C196.161346,168.267471 192.585754,174.736954 188.925964,181.358810 
	C195.316437,181.901077 200.274506,182.321808 206.060410,182.812775 
	C202.510620,186.649002 199.937103,189.430161 196.809448,192.810181 
	C205.819885,196.091202 210.887054,202.015335 214.633698,210.164825 
	C217.953201,207.106064 220.674469,204.598557 224.396118,201.169266 
	C224.819077,207.184967 225.181183,212.335129 225.612183,218.465134 
	C232.406021,214.646179 239.119263,210.872543 245.933685,207.042023 
	C249.093048,216.229431 245.780075,224.564468 240.867844,232.747482 
	C271.813721,229.278229 298.285065,207.493729 304.636963,165.492599 
	C301.965851,167.444305 299.532135,169.402100 296.918671,171.079849 
	C294.475952,172.647995 291.842499,173.918976 289.292969,175.320740 
	C289.054108,174.941986 288.815247,174.563232 288.576385,174.184479 
	C307.202972,156.868927 323.896271,137.948242 337.025574,116.097000 
	C350.160553,94.236412 358.959442,70.866844 362.074341,44.911526 
	C308.248535,52.274960 267.530701,81.245003 232.037506,119.478683 
	C231.668274,119.041161 231.299026,118.603630 230.929794,118.166107 
	C234.287674,113.115402 237.645538,108.064697 241.304581,102.800850 
	C241.238342,102.682358 241.172119,102.563858 241.105896,102.445358 
	C241.103287,102.654472 241.100662,102.863586 240.311066,102.650291 
M273.984985,270.696014 
	C249.956085,275.113617 226.630844,272.961823 204.055267,263.365204 
	C202.946854,262.894012 200.943680,262.963837 200.104950,263.669983 
	C193.542206,269.195129 187.162445,274.937622 180.609375,280.716064 
	C231.747833,311.000641 313.310425,306.907654 363.537079,245.803482 
	C410.841614,188.254288 400.983276,112.012383 371.540253,73.485512 
	C367.942444,82.833603 364.151917,92.389366 360.656250,102.051796 
	C360.068024,103.677704 360.262360,105.962868 360.926056,107.608276 
	C368.870331,127.303391 371.568481,147.598267 369.165619,168.742081 
	C363.552399,218.135345 323.876526,261.070374 273.984985,270.696014 
M307.095581,19.388975 
	C277.172791,7.060953 246.350983,4.912848 215.147156,12.792298 
	C134.369125,33.190002 84.311943,118.270828 114.254364,203.648315 
	C115.805458,208.071091 117.855278,212.318954 119.829620,217.021500 
	C126.198158,211.533371 131.784790,206.547211 137.575333,201.810303 
	C140.023987,199.807190 140.334534,198.077820 139.210617,195.046844 
	C131.827408,175.135803 129.668503,154.519974 133.339127,133.657700 
	C147.096466,55.466537 230.327408,12.652076 301.482086,45.756977 
	C302.669464,46.309414 304.394257,46.593746 305.560364,46.165272 
	C315.281158,42.593502 324.929565,38.824802 335.913116,34.611805 
	C326.118134,29.452692 316.935760,24.616249 307.095581,19.388975 
M245.738907,393.735718 
	C242.613373,387.529144 239.487839,381.322540 236.202179,374.798035 
	C242.382553,372.545959 245.578506,368.394318 245.731369,362.299652 
	C245.902557,355.473358 246.006485,348.630402 245.724686,341.811859 
	C245.425583,334.574799 241.560593,329.655884 234.538589,329.326782 
	C221.802628,328.729858 209.018631,329.157562 196.118805,329.157562 
	C196.118805,353.159332 196.118805,376.879944 196.118805,400.706360 
	C202.646011,400.706360 208.875031,400.706360 215.907074,400.706360 
	C215.907074,392.362488 215.907074,384.290985 215.907074,376.219482 
	C220.241638,383.434692 223.474472,390.716492 226.863129,397.924988 
	C227.419678,399.108917 228.626892,400.806396 229.591980,400.846222 
	C235.947784,401.108398 242.319641,400.981537 249.232773,400.981537 
	C247.913315,398.271515 246.976929,396.348267 245.738907,393.735718 
M295.300171,387.998627 
	C288.777557,388.001648 288.769867,388.001648 288.766388,381.399353 
	C288.760284,369.905914 288.844452,358.411621 288.715149,346.919617 
	C288.677429,343.566437 289.213013,341.744110 293.275513,341.699982 
	C297.454132,341.654633 298.565948,343.308228 298.201599,347.037598 
	C298.011353,348.984741 298.168060,350.965759 298.168060,353.285461 
	C304.982758,353.285461 311.354553,353.285461 318.004547,353.285461 
	C318.004547,349.626953 318.044312,346.305573 317.996796,342.985443 
	C317.873901,334.403442 313.505981,329.439606 305.028595,329.047333 
	C297.384552,328.693634 289.699921,328.705658 282.054047,329.037140 
	C273.518280,329.407166 269.032227,334.302765 268.985138,342.843140 
	C268.904266,357.500946 268.909973,372.159821 268.983368,386.817719 
	C269.026459,395.421234 273.283051,400.285980 281.921051,400.801514 
	C289.554718,401.257080 297.249237,401.174255 304.893768,400.824677 
	C311.817963,400.508026 316.916138,397.114655 317.332642,391.378143 
	C318.059235,381.370850 317.535004,371.272736 317.535004,361.374146 
	C309.151398,361.374146 301.064728,361.374146 292.992584,361.374146 
	C292.992584,365.514526 292.992584,369.299500 292.992584,373.271973 
	C294.765594,373.553223 296.323547,373.800354 298.168182,374.092987 
	C298.168182,376.546936 298.421844,378.728699 298.101440,380.822601 
	C297.733948,383.224365 296.857452,385.548187 295.300171,387.998627 
M169.906555,378.597260 
	C165.956161,363.309448 161.913559,348.044342 158.134598,332.714264 
	C157.394089,329.710266 156.219589,328.621735 153.118484,328.766479 
	C147.799896,329.014709 142.449554,329.049591 137.135422,328.757629 
	C133.749329,328.571594 132.628754,329.934204 131.875275,333.039337 
	C128.740097,345.959717 125.310974,358.808685 122.006104,371.688019 
	C119.541740,381.291870 117.102562,390.902161 114.572075,400.823608 
	C121.332031,400.823608 127.455879,400.823608 133.725433,400.823608 
	C134.651901,397.247528 135.550003,393.781006 136.493713,390.138367 
	C140.130280,390.138367 143.504532,390.526062 146.752808,390.051453 
	C152.215195,389.253296 154.738724,391.332886 154.972702,396.757599 
	C155.063171,398.855225 155.104233,401.152405 158.428009,401.047577 
	C163.900482,400.874969 169.382385,401.000793 175.549393,401.000793 
	C173.630814,393.475891 171.837967,386.444153 169.906555,378.597260 
M374.479462,401.009369 
	C378.227356,401.009369 381.975250,401.009369 385.653687,401.009369 
	C385.653687,395.948120 385.653687,391.679413 385.653687,386.758362 
	C377.364929,386.758362 369.324799,386.758362 361.417603,386.758362 
	C361.417603,381.484650 361.417603,376.877045 361.417603,371.644806 
	C368.240662,371.644806 374.792877,371.644806 381.287598,371.644806 
	C381.287598,366.624969 381.287598,362.244720 381.287598,357.343353 
	C374.461823,357.343353 368.043579,357.343353 361.505920,357.343353 
	C361.505920,352.258118 361.505920,347.709259 361.505920,342.673767 
	C369.459808,342.673767 377.044312,342.673767 384.663605,342.673767 
	C384.663605,337.908417 384.663605,333.641907 384.663605,329.170013 
	C370.211151,329.170013 356.011230,329.170013 341.702850,329.170013 
	C341.702850,353.249451 341.702850,376.985413 341.702850,401.009369 
	C352.517090,401.009369 363.001923,401.009369 374.479462,401.009369 
M64.268089,391.448792 
	C64.268089,394.547668 64.268089,397.646545 64.268089,400.703918 
	C71.227295,400.703918 77.475105,400.703918 84.198128,400.703918 
	C84.198128,381.360870 84.198128,362.313629 84.198128,342.712463 
	C89.062988,342.712463 93.452370,342.712463 97.785599,342.712463 
	C97.785599,337.869843 97.785599,333.595306 97.785599,329.126709 
	C82.006996,329.126709 66.475044,329.126709 50.841595,329.126709 
	C50.841595,333.824219 50.841595,338.223236 50.841595,343.109039 
	C55.464165,343.109039 59.715500,343.109039 64.268288,343.109039 
	C64.268288,359.223602 64.268288,374.844116 64.268089,391.448792 
M437.263855,349.619324 
	C437.263855,347.510437 437.263855,345.401520 437.263855,342.854309 
	C442.147614,342.854309 446.411011,342.854309 450.910339,342.854309 
	C450.910339,338.031921 450.910339,333.656433 450.910339,329.248840 
	C435.095123,329.248840 419.587128,329.248840 404.160706,329.248840 
	C404.160706,333.925568 404.160706,338.188354 404.160706,342.912659 
	C408.675537,342.912659 412.929321,342.912659 417.694092,342.912659 
	C417.694092,362.416962 417.694092,381.459381 417.694092,400.706604 
	C424.442017,400.706604 430.663605,400.706604 437.264038,400.706604 
	C437.264038,383.808777 437.264038,367.201385 437.263855,349.619324 
M147.780426,243.291458 
	C144.114059,246.545090 140.447678,249.798721 136.750015,253.080139 
	C139.553085,256.277344 141.958832,259.021362 144.584579,262.016327 
	C164.383377,244.652603 184.059586,227.396378 203.923965,209.975128 
	C201.014893,206.701172 198.524002,203.897842 195.964249,201.017029 
	C179.799561,215.206955 164.061691,229.022232 147.780426,243.291458 
M180.336273,479.405090 
	C180.336273,470.630341 180.336273,461.855560 180.336273,453.093140 
	C177.142410,453.093140 174.432037,453.093140 171.323883,453.093140 
	C171.323883,458.343964 171.323883,463.220978 171.323883,468.097961 
	C171.003128,468.177979 170.682358,468.257965 170.361603,468.337952 
	C168.128006,463.130371 165.894394,457.922760 163.810532,453.064270 
	C160.771210,453.064270 158.175217,453.064270 155.658661,453.064270 
	C155.658661,464.853729 155.658661,476.295624 155.658661,487.872131 
	C158.548599,487.872131 161.183594,487.872131 164.483490,487.872131 
	C164.483490,482.792999 164.483490,477.845856 164.483490,472.898712 
	C164.836945,472.848206 165.190414,472.797668 165.543869,472.747162 
	C167.770966,477.819580 169.998062,482.892029 172.097076,487.672760 
	C175.031326,487.672760 177.594482,487.672760 180.336243,487.672760 
	C180.336243,485.011932 180.336243,482.690338 180.336273,479.405090 
M140.434875,217.946686 
	C134.330978,223.280472 128.227081,228.614273 121.994308,234.060684 
	C124.864540,237.254257 127.370964,240.043045 129.993225,242.960709 
	C146.656662,228.400116 162.923630,214.185959 179.417770,199.773300 
	C176.703369,196.662186 174.217484,193.813004 171.538101,190.742035 
	C161.224792,199.758057 151.092606,208.615738 140.434875,217.946686 
M165.464096,258.970978 
	C161.136475,262.774963 156.808853,266.578949 152.318054,270.526367 
	C155.117294,273.705017 157.610458,276.536102 160.220963,279.500427 
	C176.828491,264.988892 193.093491,250.776657 209.697769,236.267960 
	C206.987625,233.144836 204.450119,230.220642 201.836563,227.208817 
	C189.543976,237.945190 177.771744,248.227097 165.464096,258.970978 
M248.703827,452.715515 
	C246.597015,452.715515 244.490189,452.715515 242.365784,452.715515 
	C242.365784,464.712952 242.365784,476.121582 242.365784,487.916138 
	C248.491867,487.916138 254.429871,488.108521 260.348236,487.850220 
	C264.472626,487.670227 266.583191,485.013702 266.623840,480.920502 
	C266.693115,473.945129 266.698822,466.968231 266.636169,459.992798 
	C266.595062,455.418762 264.302765,452.873627 259.598938,452.799133 
	C256.278015,452.746552 252.956329,452.741699 248.703827,452.715515 
M334.545471,488.019257 
	C335.544617,488.019165 336.543915,488.030121 337.542877,488.017242 
	C345.157806,487.919189 346.913849,486.148102 346.947876,478.541290 
	C346.994385,468.144562 346.117035,467.262970 335.617371,467.097900 
	C334.830475,467.085541 334.045319,466.963654 333.185913,466.886047 
	C333.185913,464.338715 333.185913,462.109924 333.185913,459.881134 
	C333.622437,459.606110 334.058990,459.331085 334.495514,459.056061 
	C335.755920,460.564850 337.016296,462.073669 338.250763,463.551422 
	C340.917145,463.551422 343.700470,463.551422 346.445709,463.551422 
	C347.460388,455.024597 345.526184,452.821045 337.193542,452.711151 
	C323.663666,452.532684 322.119080,454.136261 323.075500,466.928101 
	C323.386871,471.092682 325.400940,473.415649 329.556152,473.670685 
	C331.979797,473.819427 334.420074,473.697784 336.889404,473.697784 
	C336.889404,476.519470 336.889404,478.610840 336.889404,480.702209 
	C336.500946,480.989075 336.112488,481.275909 335.724030,481.562744 
	C334.388092,480.176178 333.052155,478.789642 331.584839,477.266724 
	C329.207245,477.266724 326.270935,477.266724 323.364502,477.266724 
	C322.940155,486.163757 324.653809,487.902893 334.545471,488.019257 
M206.801605,452.753815 
	C200.086594,453.430817 198.902359,454.726013 198.858521,461.522247 
	C198.834869,465.186432 198.889465,468.851349 198.846786,472.515198 
	C198.674026,487.349243 197.580597,488.386688 215.143890,487.991577 
	C215.476883,487.984100 215.810776,487.982574 216.142471,487.956116 
	C220.655579,487.596802 223.185364,485.417908 223.087967,480.625031 
	C223.003387,476.462769 223.076721,472.297363 223.076950,468.133331 
	C223.077789,452.725189 223.077255,452.725189 206.801605,452.753815 
M284.956879,474.492828 
	C284.956879,478.917969 284.956879,483.343140 284.956879,487.645508 
	C292.535370,487.645508 299.571075,487.645508 306.470215,487.645508 
	C306.470215,485.338074 306.470215,483.406250 306.470215,481.029663 
	C302.481873,481.029663 298.736725,481.029663 295.000061,481.029663 
	C295.000061,478.353638 295.000061,476.146942 295.000061,473.578003 
	C298.252777,473.578003 301.179810,473.578003 304.313080,473.578003 
	C304.313080,471.165375 304.313080,469.132050 304.313080,466.785980 
	C301.051361,466.785980 298.100098,466.785980 295.016846,466.785980 
	C295.016846,464.242371 295.016846,462.019623 295.016846,459.478333 
	C298.811981,459.478333 302.262787,459.478333 305.841034,459.478333 
	C305.841034,457.086365 305.841034,455.020630 305.841034,452.906921 
	C298.789856,452.906921 292.013000,452.906921 284.956879,452.906921 
	C284.956879,459.897339 284.956879,466.696625 284.956879,474.492828 
z"/>
<path fill="#02B0EF" opacity="1.000000" stroke="none" 
	d="
M241.003418,103.013992 
	C237.645538,108.064697 234.287674,113.115402 230.929794,118.166107 
	C231.299026,118.603630 231.668274,119.041161 232.037506,119.478683 
	C267.530701,81.245003 308.248535,52.274960 362.074341,44.911526 
	C358.959442,70.866844 350.160553,94.236412 337.025574,116.097000 
	C323.896271,137.948242 307.202972,156.868927 288.576385,174.184479 
	C288.815247,174.563232 289.054108,174.941986 289.292969,175.320740 
	C291.842499,173.918976 294.475952,172.647995 296.918671,171.079849 
	C299.532135,169.402100 301.965851,167.444305 304.636963,165.492599 
	C298.285065,207.493729 271.813721,229.278229 240.867844,232.747482 
	C245.780075,224.564468 249.093048,216.229431 245.933685,207.042023 
	C239.119263,210.872543 232.406021,214.646179 225.612183,218.465134 
	C225.181183,212.335129 224.819077,207.184967 224.396118,201.169266 
	C220.674469,204.598557 217.953201,207.106064 214.633698,210.164825 
	C210.887054,202.015335 205.819885,196.091202 196.809448,192.810181 
	C199.937103,189.430161 202.510620,186.649002 206.060410,182.812775 
	C200.274506,182.321808 195.316437,181.901077 188.925964,181.358810 
	C192.585754,174.736954 196.161346,168.267471 200.038437,161.252426 
	C190.826904,158.066284 182.645248,161.407074 174.679611,166.251282 
	C171.659302,138.675430 204.371643,107.153831 240.681274,102.846207 
	C241.051498,103.042130 241.003418,103.014000 241.003418,103.013992 
M344.876129,63.784737 
	C334.893799,74.488220 324.969757,85.247253 314.877594,95.846153 
	C312.966217,97.853500 312.755005,99.368080 313.797546,101.928810 
	C316.318542,108.120964 314.741058,113.874657 310.089935,118.390373 
	C305.572388,122.776413 300.089691,123.982880 293.993805,121.412415 
	C292.846100,120.928459 290.800049,120.728096 290.065857,121.390862 
	C280.931641,129.636703 271.717194,137.821976 263.053894,146.549438 
	C258.561768,151.074844 259.540649,159.206650 263.944824,161.528885 
	C268.329071,163.840622 275.269012,163.222565 278.776428,159.562241 
	C288.658203,149.249741 298.946991,139.232605 307.912201,128.157486 
	C323.654053,108.710869 335.955597,87.027824 346.723633,63.852005 
	C346.798950,63.330521 346.874237,62.809032 347.052429,61.575096 
	C346.151215,62.536198 345.765930,62.947090 344.876129,63.784737 
M293.247986,100.645378 
	C289.944977,104.284271 289.256805,108.319237 292.011200,112.465225 
	C294.187500,115.741005 297.371246,117.359695 301.448212,116.479004 
	C305.398102,115.625763 308.622040,113.243042 308.621460,109.294655 
	C308.620972,106.189758 307.301117,102.347733 305.193298,100.152359 
	C301.988220,96.814125 297.632477,97.433456 293.247986,100.645378 
M287.268860,175.462494 
	C287.484070,175.484222 287.699249,175.505951 287.914459,175.527664 
	C287.816589,175.420670 287.718750,175.313690 287.268860,175.462494 
z"/>
<path fill="#020202" opacity="1.000000" stroke="none" 
	d="
M274.397034,270.576019 
	C323.876526,261.070374 363.552399,218.135345 369.165619,168.742081 
	C371.568481,147.598267 368.870331,127.303391 360.926056,107.608276 
	C360.262360,105.962868 360.068024,103.677704 360.656250,102.051796 
	C364.151917,92.389366 367.942444,82.833603 371.540253,73.485512 
	C400.983276,112.012383 410.841614,188.254288 363.537079,245.803482 
	C313.310425,306.907654 231.747833,311.000641 180.609375,280.716064 
	C187.162445,274.937622 193.542206,269.195129 200.104950,263.669983 
	C200.943680,262.963837 202.946854,262.894012 204.055267,263.365204 
	C226.630844,272.961823 249.956085,275.113617 274.397034,270.576019 
z"/>
<path fill="#030303" opacity="1.000000" stroke="none" 
	d="
M307.424500,19.584393 
	C316.935760,24.616249 326.118134,29.452692 335.913116,34.611805 
	C324.929565,38.824802 315.281158,42.593502 305.560364,46.165272 
	C304.394257,46.593746 302.669464,46.309414 301.482086,45.756977 
	C230.327408,12.652076 147.096466,55.466537 133.339127,133.657700 
	C129.668503,154.519974 131.827408,175.135803 139.210617,195.046844 
	C140.334534,198.077820 140.023987,199.807190 137.575333,201.810303 
	C131.784790,206.547211 126.198158,211.533371 119.829620,217.021500 
	C117.855278,212.318954 115.805458,208.071091 114.254364,203.648315 
	C84.311943,118.270828 134.369125,33.190002 215.147156,12.792298 
	C246.350983,4.912848 277.172791,7.060953 307.424500,19.584393 
z"/>
<path fill="#02B0EF" opacity="1.000000" stroke="none" 
	d="
M245.889709,394.080383 
	C246.976929,396.348267 247.913315,398.271515 249.232773,400.981537 
	C242.319641,400.981537 235.947784,401.108398 229.591980,400.846222 
	C228.626892,400.806396 227.419678,399.108917 226.863129,397.924988 
	C223.474472,390.716492 220.241638,383.434692 215.907074,376.219482 
	C215.907074,384.290985 215.907074,392.362488 215.907074,400.706360 
	C208.875031,400.706360 202.646011,400.706360 196.118805,400.706360 
	C196.118805,376.879944 196.118805,353.159332 196.118805,329.157562 
	C209.018631,329.157562 221.802628,328.729858 234.538589,329.326782 
	C241.560593,329.655884 245.425583,334.574799 245.724686,341.811859 
	C246.006485,348.630402 245.902557,355.473358 245.731369,362.299652 
	C245.578506,368.394318 242.382553,372.545959 236.202179,374.798035 
	C239.487839,381.322540 242.613373,387.529144 245.889709,394.080383 
M224.113266,343.044922 
	C221.349915,343.044922 218.586578,343.044922 215.628845,343.044922 
	C215.628845,349.504242 215.628845,355.553864 215.628845,361.988129 
	C218.043564,361.988129 220.209641,362.221771 222.290451,361.901428 
	C223.560394,361.705933 225.736649,360.653107 225.733475,359.993896 
	C225.706833,354.463593 225.269547,348.935272 224.113266,343.044922 
z"/>
<path fill="#04B0EF" opacity="1.000000" stroke="none" 
	d="
M295.751129,387.952240 
	C296.857452,385.548187 297.733948,383.224365 298.101440,380.822601 
	C298.421844,378.728699 298.168182,376.546936 298.168182,374.092987 
	C296.323547,373.800354 294.765594,373.553223 292.992584,373.271973 
	C292.992584,369.299500 292.992584,365.514526 292.992584,361.374146 
	C301.064728,361.374146 309.151398,361.374146 317.535004,361.374146 
	C317.535004,371.272736 318.059235,381.370850 317.332642,391.378143 
	C316.916138,397.114655 311.817963,400.508026 304.893768,400.824677 
	C297.249237,401.174255 289.554718,401.257080 281.921051,400.801514 
	C273.283051,400.285980 269.026459,395.421234 268.983368,386.817719 
	C268.909973,372.159821 268.904266,357.500946 268.985138,342.843140 
	C269.032227,334.302765 273.518280,329.407166 282.054047,329.037140 
	C289.699921,328.705658 297.384552,328.693634 305.028595,329.047333 
	C313.505981,329.439606 317.873901,334.403442 317.996796,342.985443 
	C318.044312,346.305573 318.004547,349.626953 318.004547,353.285461 
	C311.354553,353.285461 304.982758,353.285461 298.168060,353.285461 
	C298.168060,350.965759 298.011353,348.984741 298.201599,347.037598 
	C298.565948,343.308228 297.454132,341.654633 293.275513,341.699982 
	C289.213013,341.744110 288.677429,343.566437 288.715149,346.919617 
	C288.844452,358.411621 288.760284,369.905914 288.766388,381.399353 
	C288.769867,388.001648 288.777557,388.001648 295.751129,387.952240 
z"/>
<path fill="#03B0EF" opacity="1.000000" stroke="none" 
	d="
M169.975830,379.004822 
	C171.837967,386.444153 173.630814,393.475891 175.549393,401.000793 
	C169.382385,401.000793 163.900482,400.874969 158.428009,401.047577 
	C155.104233,401.152405 155.063171,398.855225 154.972702,396.757599 
	C154.738724,391.332886 152.215195,389.253296 146.752808,390.051453 
	C143.504532,390.526062 140.130280,390.138367 136.493713,390.138367 
	C135.550003,393.781006 134.651901,397.247528 133.725433,400.823608 
	C127.455879,400.823608 121.332031,400.823608 114.572075,400.823608 
	C117.102562,390.902161 119.541740,381.291870 122.006104,371.688019 
	C125.310974,358.808685 128.740097,345.959717 131.875275,333.039337 
	C132.628754,329.934204 133.749329,328.571594 137.135422,328.757629 
	C142.449554,329.049591 147.799896,329.014709 153.118484,328.766479 
	C156.219589,328.621735 157.394089,329.710266 158.134598,332.714264 
	C161.913559,348.044342 165.956161,363.309448 169.975830,379.004822 
M146.984787,359.583801 
	C146.485199,357.694672 145.985611,355.805542 145.486023,353.916443 
	C145.035294,353.984344 144.584579,354.052246 144.133850,354.120148 
	C142.589035,361.282227 141.044205,368.444305 139.450592,375.832581 
	C143.465103,375.832581 146.700134,375.832581 150.376617,375.832581 
	C149.226059,370.431061 148.158966,365.421448 146.984787,359.583801 
z"/>
<path fill="#06B1EF" opacity="1.000000" stroke="none" 
	d="
M373.983093,401.009369 
	C363.001923,401.009369 352.517090,401.009369 341.702850,401.009369 
	C341.702850,376.985413 341.702850,353.249451 341.702850,329.170013 
	C356.011230,329.170013 370.211151,329.170013 384.663605,329.170013 
	C384.663605,333.641907 384.663605,337.908417 384.663605,342.673767 
	C377.044312,342.673767 369.459808,342.673767 361.505920,342.673767 
	C361.505920,347.709259 361.505920,352.258118 361.505920,357.343353 
	C368.043579,357.343353 374.461823,357.343353 381.287598,357.343353 
	C381.287598,362.244720 381.287598,366.624969 381.287598,371.644806 
	C374.792877,371.644806 368.240662,371.644806 361.417603,371.644806 
	C361.417603,376.877045 361.417603,381.484650 361.417603,386.758362 
	C369.324799,386.758362 377.364929,386.758362 385.653687,386.758362 
	C385.653687,391.679413 385.653687,395.948120 385.653687,401.009369 
	C381.975250,401.009369 378.227356,401.009369 373.983093,401.009369 
z"/>
<path fill="#04B0EF" opacity="1.000000" stroke="none" 
	d="
M64.268188,390.956696 
	C64.268288,374.844116 64.268288,359.223602 64.268288,343.109039 
	C59.715500,343.109039 55.464165,343.109039 50.841595,343.109039 
	C50.841595,338.223236 50.841595,333.824219 50.841595,329.126709 
	C66.475044,329.126709 82.006996,329.126709 97.785599,329.126709 
	C97.785599,333.595306 97.785599,337.869843 97.785599,342.712463 
	C93.452370,342.712463 89.062988,342.712463 84.198128,342.712463 
	C84.198128,362.313629 84.198128,381.360870 84.198128,400.703918 
	C77.475105,400.703918 71.227295,400.703918 64.268089,400.703918 
	C64.268089,397.646545 64.268089,394.547668 64.268188,390.956696 
z"/>
<path fill="#01AFEF" opacity="1.000000" stroke="none" 
	d="
M437.263947,350.106659 
	C437.264038,367.201385 437.264038,383.808777 437.264038,400.706604 
	C430.663605,400.706604 424.442017,400.706604 417.694092,400.706604 
	C417.694092,381.459381 417.694092,362.416962 417.694092,342.912659 
	C412.929321,342.912659 408.675537,342.912659 404.160706,342.912659 
	C404.160706,338.188354 404.160706,333.925568 404.160706,329.248840 
	C419.587128,329.248840 435.095123,329.248840 450.910339,329.248840 
	C450.910339,333.656433 450.910339,338.031921 450.910339,342.854309 
	C446.411011,342.854309 442.147614,342.854309 437.263855,342.854309 
	C437.263855,345.401520 437.263855,347.510437 437.263947,350.106659 
z"/>
<path fill="#060606" opacity="1.000000" stroke="none" 
	d="
M148.052124,243.064484 
	C164.061691,229.022232 179.799561,215.206955 195.964249,201.017029 
	C198.524002,203.897842 201.014893,206.701172 203.923965,209.975128 
	C184.059586,227.396378 164.383377,244.652603 144.584579,262.016327 
	C141.958832,259.021362 139.553085,256.277344 136.750015,253.080139 
	C140.447678,249.798721 144.114059,246.545090 148.052124,243.064484 
z"/>
<path fill="#080808" opacity="1.000000" stroke="none" 
	d="
M180.336258,479.886902 
	C180.336243,482.690338 180.336243,485.011932 180.336243,487.672760 
	C177.594482,487.672760 175.031326,487.672760 172.097076,487.672760 
	C169.998062,482.892029 167.770966,477.819580 165.543869,472.747162 
	C165.190414,472.797668 164.836945,472.848206 164.483490,472.898712 
	C164.483490,477.845856 164.483490,482.792999 164.483490,487.872131 
	C161.183594,487.872131 158.548599,487.872131 155.658661,487.872131 
	C155.658661,476.295624 155.658661,464.853729 155.658661,453.064270 
	C158.175217,453.064270 160.771210,453.064270 163.810532,453.064270 
	C165.894394,457.922760 168.128006,463.130371 170.361603,468.337952 
	C170.682358,468.257965 171.003128,468.177979 171.323883,468.097961 
	C171.323883,463.220978 171.323883,458.343964 171.323883,453.093140 
	C174.432037,453.093140 177.142410,453.093140 180.336273,453.093140 
	C180.336273,461.855560 180.336273,470.630341 180.336258,479.886902 
z"/>
<path fill="#060606" opacity="1.000000" stroke="none" 
	d="
M140.697647,217.710052 
	C151.092606,208.615738 161.224792,199.758057 171.538101,190.742035 
	C174.217484,193.813004 176.703369,196.662186 179.417770,199.773300 
	C162.923630,214.185959 146.656662,228.400116 129.993225,242.960709 
	C127.370964,240.043045 124.864540,237.254257 121.994308,234.060684 
	C128.227081,228.614273 134.330978,223.280472 140.697647,217.710052 
z"/>
<path fill="#060606" opacity="1.000000" stroke="none" 
	d="
M165.731812,258.739990 
	C177.771744,248.227097 189.543976,237.945190 201.836563,227.208817 
	C204.450119,230.220642 206.987625,233.144836 209.697769,236.267960 
	C193.093491,250.776657 176.828491,264.988892 160.220963,279.500427 
	C157.610458,276.536102 155.117294,273.705017 152.318054,270.526367 
	C156.808853,266.578949 161.136475,262.774963 165.731812,258.739990 
z"/>
<path fill="#090909" opacity="1.000000" stroke="none" 
	d="
M249.169403,452.715515 
	C252.956329,452.741699 256.278015,452.746552 259.598938,452.799133 
	C264.302765,452.873627 266.595062,455.418762 266.636169,459.992798 
	C266.698822,466.968231 266.693115,473.945129 266.623840,480.920502 
	C266.583191,485.013702 264.472626,487.670227 260.348236,487.850220 
	C254.429871,488.108521 248.491867,487.916138 242.365784,487.916138 
	C242.365784,476.121582 242.365784,464.712952 242.365784,452.715515 
	C244.490189,452.715515 246.597015,452.715515 249.169403,452.715515 
M256.969849,473.392944 
	C256.969849,468.768860 256.969849,464.144806 256.969849,459.268555 
	C255.094177,459.268555 253.701492,459.268555 252.243484,459.268555 
	C252.243484,466.794098 252.243484,474.202057 252.243484,481.929169 
	C254.003189,481.666534 255.409744,481.456604 256.969849,481.223755 
	C256.969849,478.669556 256.969849,476.512543 256.969849,473.392944 
z"/>
<path fill="#0A0A0A" opacity="1.000000" stroke="none" 
	d="
M334.086792,488.019257 
	C324.653809,487.902893 322.940155,486.163757 323.364502,477.266724 
	C326.270935,477.266724 329.207245,477.266724 331.584839,477.266724 
	C333.052155,478.789642 334.388092,480.176178 335.724030,481.562744 
	C336.112488,481.275909 336.500946,480.989075 336.889404,480.702209 
	C336.889404,478.610840 336.889404,476.519470 336.889404,473.697784 
	C334.420074,473.697784 331.979797,473.819427 329.556152,473.670685 
	C325.400940,473.415649 323.386871,471.092682 323.075500,466.928101 
	C322.119080,454.136261 323.663666,452.532684 337.193542,452.711151 
	C345.526184,452.821045 347.460388,455.024597 346.445709,463.551422 
	C343.700470,463.551422 340.917145,463.551422 338.250763,463.551422 
	C337.016296,462.073669 335.755920,460.564850 334.495514,459.056061 
	C334.058990,459.331085 333.622437,459.606110 333.185913,459.881134 
	C333.185913,462.109924 333.185913,464.338715 333.185913,466.886047 
	C334.045319,466.963654 334.830475,467.085541 335.617371,467.097900 
	C346.117035,467.262970 346.994385,468.144562 346.947876,478.541290 
	C346.913849,486.148102 345.157806,487.919189 337.542877,488.017242 
	C336.543915,488.030121 335.544617,488.019165 334.086792,488.019257 
z"/>
<path fill="#030303" opacity="1.000000" stroke="none" 
	d="
M207.265457,452.745026 
	C223.077255,452.725189 223.077789,452.725189 223.076950,468.133331 
	C223.076721,472.297363 223.003387,476.462769 223.087967,480.625031 
	C223.185364,485.417908 220.655579,487.596802 216.142471,487.956116 
	C215.810776,487.982574 215.476883,487.984100 215.143890,487.991577 
	C197.580597,488.386688 198.674026,487.349243 198.846786,472.515198 
	C198.889465,468.851349 198.834869,465.186432 198.858521,461.522247 
	C198.902359,454.726013 200.086594,453.430817 207.265457,452.745026 
M213.634415,477.143738 
	C213.632538,472.153473 213.767105,467.156128 213.510376,462.179016 
	C213.460739,461.216766 212.009567,459.871643 210.961319,459.580688 
	C210.294312,459.395538 208.408005,460.803802 208.384003,461.540466 
	C208.174820,467.954224 208.263245,474.377686 208.263245,480.694519 
	C211.408844,481.354431 213.784729,481.868469 213.634415,477.143738 
z"/>
<path fill="#0A0A0A" opacity="1.000000" stroke="none" 
	d="
M284.956879,473.994385 
	C284.956879,466.696625 284.956879,459.897339 284.956879,452.906921 
	C292.013000,452.906921 298.789856,452.906921 305.841034,452.906921 
	C305.841034,455.020630 305.841034,457.086365 305.841034,459.478333 
	C302.262787,459.478333 298.811981,459.478333 295.016846,459.478333 
	C295.016846,462.019623 295.016846,464.242371 295.016846,466.785980 
	C298.100098,466.785980 301.051361,466.785980 304.313080,466.785980 
	C304.313080,469.132050 304.313080,471.165375 304.313080,473.578003 
	C301.179810,473.578003 298.252777,473.578003 295.000061,473.578003 
	C295.000061,476.146942 295.000061,478.353638 295.000061,481.029663 
	C298.736725,481.029663 302.481873,481.029663 306.470215,481.029663 
	C306.470215,483.406250 306.470215,485.338074 306.470215,487.645508 
	C299.571075,487.645508 292.535370,487.645508 284.956879,487.645508 
	C284.956879,483.343140 284.956879,478.917969 284.956879,473.994385 
z"/>
<path fill="#02B0EF" opacity="1.000000" stroke="none" 
	d="
M241.074768,103.057419 
	C241.100662,102.863586 241.103287,102.654472 241.105896,102.445358 
	C241.172119,102.563858 241.238342,102.682358 241.153992,102.907425 
	C241.003418,103.014000 241.051498,103.042130 241.074768,103.057419 
z"/>
<path fill="#FAFDFF" opacity="1.000000" stroke="none" 
	d="
M346.252045,64.226120 
	C335.955597,87.027824 323.654053,108.710869 307.912201,128.157486 
	C298.946991,139.232605 288.658203,149.249741 278.776428,159.562241 
	C275.269012,163.222565 268.329071,163.840622 263.944824,161.528885 
	C259.540649,159.206650 258.561768,151.074844 263.053894,146.549438 
	C271.717194,137.821976 280.931641,129.636703 290.065857,121.390862 
	C290.800049,120.728096 292.846100,120.928459 293.993805,121.412415 
	C300.089691,123.982880 305.572388,122.776413 310.089935,118.390373 
	C314.741058,113.874657 316.318542,108.120964 313.797546,101.928810 
	C312.755005,99.368080 312.966217,97.853500 314.877594,95.846153 
	C324.969757,85.247253 334.893799,74.488220 345.338806,63.795864 
	C345.951630,63.946701 346.101837,64.086411 346.252045,64.226120 
z"/>
<path fill="#F8FDFF" opacity="1.000000" stroke="none" 
	d="
M293.532593,100.392227 
	C297.632477,97.433456 301.988220,96.814125 305.193298,100.152359 
	C307.301117,102.347733 308.620972,106.189758 308.621460,109.294655 
	C308.622040,113.243042 305.398102,115.625763 301.448212,116.479004 
	C297.371246,117.359695 294.187500,115.741005 292.011200,112.465225 
	C289.256805,108.319237 289.944977,104.284271 293.532593,100.392227 
z"/>
<path fill="#FAFDFF" opacity="1.000000" stroke="none" 
	d="
M345.591064,63.582489 
	C345.765930,62.947090 346.151215,62.536198 347.052429,61.575096 
	C346.874237,62.809032 346.798950,63.330521 346.487854,64.039062 
	C346.101837,64.086411 345.951630,63.946701 345.591064,63.582489 
z"/>
<path fill="#FEFEFF" opacity="1.000000" stroke="none" 
	d="
M287.444885,175.334595 
	C287.718750,175.313690 287.816589,175.420670 287.914459,175.527664 
	C287.699249,175.505951 287.484070,175.484222 287.444885,175.334595 
z"/>
<path fill="#F3FBFE" opacity="1.000000" stroke="none" 
	d="
M224.534607,343.225647 
	C225.269547,348.935272 225.706833,354.463593 225.733475,359.993896 
	C225.736649,360.653107 223.560394,361.705933 222.290451,361.901428 
	C220.209641,362.221771 218.043564,361.988129 215.628845,361.988129 
	C215.628845,355.553864 215.628845,349.504242 215.628845,343.044922 
	C218.586578,343.044922 221.349915,343.044922 224.534607,343.225647 
z"/>
<path fill="#F7FCFE" opacity="1.000000" stroke="none" 
	d="
M147.038330,359.997803 
	C148.158966,365.421448 149.226059,370.431061 150.376617,375.832581 
	C146.700134,375.832581 143.465103,375.832581 139.450592,375.832581 
	C141.044205,368.444305 142.589035,361.282227 144.133850,354.120148 
	C144.584579,354.052246 145.035294,353.984344 145.486023,353.916443 
	C145.985611,355.805542 146.485199,357.694672 147.038330,359.997803 
z"/>
<path fill="#F9F9F9" opacity="1.000000" stroke="none" 
	d="
M256.969849,473.874207 
	C256.969849,476.512543 256.969849,478.669556 256.969849,481.223755 
	C255.409744,481.456604 254.003189,481.666534 252.243484,481.929169 
	C252.243484,474.202057 252.243484,466.794098 252.243484,459.268555 
	C253.701492,459.268555 255.094177,459.268555 256.969849,459.268555 
	C256.969849,464.144806 256.969849,468.768860 256.969849,473.874207 
z"/>
<path fill="#D8D8D8" opacity="1.000000" stroke="none" 
	d="
M213.633270,477.602386 
	C213.784729,481.868469 211.408844,481.354431 208.263245,480.694519 
	C208.263245,474.377686 208.174820,467.954224 208.384003,461.540466 
	C208.408005,460.803802 210.294312,459.395538 210.961319,459.580688 
	C212.009567,459.871643 213.460739,461.216766 213.510376,462.179016 
	C213.767105,467.156128 213.632538,472.153473 213.633270,477.602386 
z"/>
</svg>