<svg version="1.1" id="Layer_1" xmlns="http://www.w3.org/2000/svg" xmlns:xlink="http://www.w3.org/1999/xlink" x="0px" y="0px"
	 width="100%" viewBox="0 0 500 500" enable-background="new 0 0 500 500" xml:space="preserve">
<path fill="#FEFEFE" opacity="1.000000" stroke="none" 
	d="
M501.000000,191.000000 
	C501.000000,294.666656 501.000000,397.833282 501.000000,500.999939 
	C334.333405,500.999969 167.666794,500.999969 1.000145,501.000000 
	C1.000097,334.333435 1.000097,167.666870 1.000048,1.000234 
	C167.666519,1.000156 334.333038,1.000156 500.999786,1.000078 
	C501.000000,64.166664 501.000000,127.333336 501.000000,191.000000 
M217.783707,351.268280 
	C229.730377,347.682465 240.117188,341.288544 249.662582,333.002716 
	C255.280899,349.030457 249.789124,362.544617 241.309860,375.777008 
	C306.043091,366.388123 336.153442,318.457123 342.519531,268.574738 
	C334.315399,275.704865 325.818634,281.681763 315.545746,284.674988 
	C375.891205,227.916458 422.564331,163.506348 433.798523,78.254639 
	C432.747833,78.254639 432.110962,78.182854 431.494568,78.264862 
	C386.776154,84.214462 346.175507,100.943977 308.734497,125.647903 
	C279.662537,144.829880 253.902634,167.921402 230.345963,193.520660 
	C229.363968,194.587799 228.067032,195.365112 226.916824,196.277451 
	C226.536743,195.925644 226.156662,195.573837 225.776581,195.222031 
	C231.314301,186.501694 236.852020,177.781342 242.240005,169.296768 
	C184.502304,177.699203 143.874741,213.147552 136.416809,270.099274 
	C149.776825,261.503143 163.358154,256.759338 179.030670,262.185699 
	C170.756302,272.181396 163.969345,282.452362 160.457870,294.874939 
	C165.436462,294.592621 169.921158,293.871948 174.320297,294.223175 
	C178.516876,294.558228 182.624298,296.010376 188.175720,297.296997 
	C180.806870,301.233246 175.841080,305.126434 173.915634,311.064117 
	C179.474411,315.017120 185.183395,318.047943 189.510513,322.440125 
	C193.941315,326.937561 197.018646,332.768372 201.405823,339.041351 
	C205.836304,334.635010 210.299698,330.195953 214.866165,325.654388 
	C215.487320,327.552521 216.785187,329.841522 216.897934,332.187500 
	C217.198410,338.439575 216.988892,344.716187 216.620071,351.007935 
	C216.755402,351.013733 216.890732,351.019531 217.783707,351.268280 
M333.823730,467.261414 
	C372.004822,453.865356 405.124481,432.503204 430.952393,401.399933 
	C491.686401,328.261017 503.860413,246.930649 468.823730,158.727280 
	C463.670105,145.753235 456.070557,133.750793 449.474060,121.051262 
	C443.192505,137.399170 437.500061,152.608170 431.444489,167.671158 
	C430.084320,171.054504 430.064392,173.699371 431.526337,177.029022 
	C438.452026,192.802811 443.013855,209.328247 444.803375,226.432205 
	C451.860138,293.879852 430.176819,350.404877 378.604675,394.567993 
	C344.671326,423.626282 304.714752,437.966461 259.939331,438.481079 
	C233.462280,438.785370 207.996994,433.902954 183.733368,423.207977 
	C180.882294,421.951294 179.065353,422.327545 176.782867,424.426941 
	C170.165451,430.513458 163.266541,436.293335 156.500320,442.218964 
	C153.164825,445.139984 149.878220,448.116913 146.213242,451.386353 
	C206.681152,483.562286 268.771515,488.614532 333.823730,467.261414 
M96.083054,153.616180 
	C126.563095,104.808891 169.837799,74.543175 226.639877,64.508354 
	C260.651367,58.499783 294.165741,61.510162 326.069061,74.899597 
	C337.018768,79.495049 346.037445,80.844688 357.058411,75.233818 
	C367.660248,69.836342 379.570587,67.009140 390.945374,63.038860 
	C314.229340,5.549937 185.357407,-0.843029 96.438148,86.565903 
	C12.448958,169.128494 16.277920,283.775085 51.346325,349.312988 
	C51.765408,349.041870 52.221672,348.818909 52.591599,348.496765 
	C61.760612,340.512512 70.809517,332.384552 80.149368,324.605835 
	C82.968353,322.258057 83.187675,320.388947 81.997223,317.065186 
	C61.821659,260.734894 65.783684,206.391052 96.083054,153.616180 
M149.435043,368.933502 
	C160.773911,358.989319 172.112778,349.045135 183.606079,338.965485 
	C179.225464,333.971497 175.227219,329.413391 171.138733,324.752411 
	C139.679169,352.271545 108.655159,379.409637 77.409599,406.741547 
	C81.714432,411.655365 85.706841,416.212524 89.872162,420.967072 
	C109.810509,403.549530 129.356430,386.474762 149.435043,368.933502 
M130.700424,335.193665 
	C135.441147,331.060516 140.181885,326.927338 144.991943,322.733704 
	C140.644699,317.809296 136.610092,313.239014 132.440262,308.515564 
	C106.197533,331.485352 80.307266,354.146637 54.188412,377.007996 
	C58.547359,381.981812 62.541012,386.538788 66.680038,391.261627 
	C88.085045,372.524017 109.132195,354.099670 130.700424,335.193665 
M149.183105,418.671021 
	C163.673035,405.993286 178.162949,393.315582 192.809250,380.501038 
	C188.569977,375.670105 184.549057,371.088013 180.313751,366.261597 
	C154.136749,389.163147 128.249771,411.811005 102.023323,434.755798 
	C106.215485,439.529633 110.313675,444.196411 114.532494,449.000580 
	C126.135559,438.839996 137.389603,428.985046 149.183105,418.671021 
z"/>
<path fill="#01AFEF" opacity="1.000000" stroke="none" 
	d="
M216.982132,350.983032 
	C216.988892,344.716187 217.198410,338.439575 216.897934,332.187500 
	C216.785187,329.841522 215.487320,327.552521 214.866165,325.654388 
	C210.299698,330.195953 205.836304,334.635010 201.405823,339.041351 
	C197.018646,332.768372 193.941315,326.937561 189.510513,322.440125 
	C185.183395,318.047943 179.474411,315.017120 173.915634,311.064117 
	C175.841080,305.126434 180.806870,301.233246 188.175720,297.296997 
	C182.624298,296.010376 178.516876,294.558228 174.320297,294.223175 
	C169.921158,293.871948 165.436462,294.592621 160.457870,294.874939 
	C163.969345,282.452362 170.756302,272.181396 179.030670,262.185699 
	C163.358154,256.759338 149.776825,261.503143 136.416809,270.099274 
	C143.874741,213.147552 184.502304,177.699203 242.240005,169.296768 
	C236.852020,177.781342 231.314301,186.501694 225.776581,195.222031 
	C226.156662,195.573837 226.536743,195.925644 226.916824,196.277451 
	C228.067032,195.365112 229.363968,194.587799 230.345963,193.520660 
	C253.902634,167.921402 279.662537,144.829880 308.734497,125.647903 
	C346.175507,100.943977 386.776154,84.214462 431.494568,78.264862 
	C432.110962,78.182854 432.747833,78.254639 433.798523,78.254639 
	C422.564331,163.506348 375.891205,227.916458 315.545746,284.674988 
	C325.818634,281.681763 334.315399,275.704865 342.519531,268.574738 
	C336.153442,318.457123 306.043091,366.388123 241.309860,375.777008 
	C249.789124,362.544617 255.280899,349.030457 249.662582,333.002716 
	C240.117188,341.288544 229.730377,347.682465 217.393707,351.135986 
	C217.003693,351.003662 216.982132,350.983032 216.982132,350.983032 
M388.676758,127.183258 
	C377.445496,139.207413 366.214233,151.231567 355.088470,163.142761 
	C355.565216,164.194946 355.829071,164.798553 356.109955,165.394135 
	C361.049255,175.868073 359.711395,185.649353 352.227722,193.517502 
	C346.745392,199.281525 335.540710,204.089874 324.278503,198.030411 
	C321.438446,196.502350 320.421997,198.073898 318.879425,199.509140 
	C305.837708,211.643326 292.880646,223.870712 279.701721,235.854111 
	C273.777985,241.240509 272.274139,248.033371 273.304138,255.286041 
	C273.670898,257.868500 276.392639,260.898499 278.850250,262.253784 
	C285.899261,266.141022 296.425629,264.345245 302.311279,258.965027 
	C306.857330,254.809402 311.498169,250.746338 315.871094,246.414230 
	C356.142365,206.518677 385.163818,159.008774 409.235779,108.167213 
	C409.631409,107.331596 409.657654,106.321083 409.856262,105.392181 
	C409.572571,105.271194 409.288849,105.150200 409.005157,105.029213 
	C402.388794,112.239082 395.772461,119.448944 388.676758,127.183258 
M341.356873,190.125839 
	C342.586395,189.293732 343.951355,188.606659 345.023071,187.605606 
	C351.321716,181.722305 351.376312,172.320282 345.221893,166.304932 
	C338.953857,160.178513 329.969269,160.573517 324.073273,167.234787 
	C319.797394,172.065659 319.100037,179.033066 322.358490,184.366791 
	C326.032440,190.380600 332.271149,192.450043 341.356873,190.125839 
z"/>
<path fill="#020202" opacity="1.000000" stroke="none" 
	d="
M333.472809,467.438141 
	C268.771515,488.614532 206.681152,483.562286 146.213242,451.386353 
	C149.878220,448.116913 153.164825,445.139984 156.500320,442.218964 
	C163.266541,436.293335 170.165451,430.513458 176.782867,424.426941 
	C179.065353,422.327545 180.882294,421.951294 183.733368,423.207977 
	C207.996994,433.902954 233.462280,438.785370 259.939331,438.481079 
	C304.714752,437.966461 344.671326,423.626282 378.604675,394.567993 
	C430.176819,350.404877 451.860138,293.879852 444.803375,226.432205 
	C443.013855,209.328247 438.452026,192.802811 431.526337,177.029022 
	C430.064392,173.699371 430.084320,171.054504 431.444489,167.671158 
	C437.500061,152.608170 443.192505,137.399170 449.474060,121.051262 
	C456.070557,133.750793 463.670105,145.753235 468.823730,158.727280 
	C503.860413,246.930649 491.686401,328.261017 430.952393,401.399933 
	C405.124481,432.503204 372.004822,453.865356 333.472809,467.438141 
z"/>
<path fill="#020202" opacity="1.000000" stroke="none" 
	d="
M95.929108,153.947601 
	C65.783684,206.391052 61.821659,260.734894 81.997223,317.065186 
	C83.187675,320.388947 82.968353,322.258057 80.149368,324.605835 
	C70.809517,332.384552 61.760612,340.512512 52.591599,348.496765 
	C52.221672,348.818909 51.765408,349.041870 51.346325,349.312988 
	C16.277920,283.775085 12.448958,169.128494 96.438148,86.565903 
	C185.357407,-0.843029 314.229340,5.549937 390.945374,63.038860 
	C379.570587,67.009140 367.660248,69.836342 357.058411,75.233818 
	C346.037445,80.844688 337.018768,79.495049 326.069061,74.899597 
	C294.165741,61.510162 260.651367,58.499783 226.639877,64.508354 
	C169.837799,74.543175 126.563095,104.808891 95.929108,153.947601 
z"/>
<path fill="#030303" opacity="1.000000" stroke="none" 
	d="
M149.168701,369.166748 
	C129.356430,386.474762 109.810509,403.549530 89.872162,420.967072 
	C85.706841,416.212524 81.714432,411.655365 77.409599,406.741547 
	C108.655159,379.409637 139.679169,352.271545 171.138733,324.752411 
	C175.227219,329.413391 179.225464,333.971497 183.606079,338.965485 
	C172.112778,349.045135 160.773911,358.989319 149.168701,369.166748 
z"/>
<path fill="#040404" opacity="1.000000" stroke="none" 
	d="
M130.439880,335.434509 
	C109.132195,354.099670 88.085045,372.524017 66.680038,391.261627 
	C62.541012,386.538788 58.547359,381.981812 54.188412,377.007996 
	C80.307266,354.146637 106.197533,331.485352 132.440262,308.515564 
	C136.610092,313.239014 140.644699,317.809296 144.991943,322.733704 
	C140.181885,326.927338 135.441147,331.060516 130.439880,335.434509 
z"/>
<path fill="#040404" opacity="1.000000" stroke="none" 
	d="
M148.913376,418.900543 
	C137.389603,428.985046 126.135559,438.839996 114.532494,449.000580 
	C110.313675,444.196411 106.215485,439.529633 102.023323,434.755798 
	C128.249771,411.811005 154.136749,389.163147 180.313751,366.261597 
	C184.549057,371.088013 188.569977,375.670105 192.809250,380.501038 
	C178.162949,393.315582 163.673035,405.993286 148.913376,418.900543 
z"/>
<path fill="#01AFEF" opacity="1.000000" stroke="none" 
	d="
M217.014877,351.014526 
	C216.890732,351.019531 216.755402,351.013733 216.801102,350.995483 
	C216.982132,350.983032 217.003693,351.003662 217.014877,351.014526 
z"/>
<path fill="#FCFEFF" opacity="1.000000" stroke="none" 
	d="
M388.916443,126.921036 
	C395.772461,119.448944 402.388794,112.239082 409.005157,105.029213 
	C409.288849,105.150200 409.572571,105.271194 409.856262,105.392181 
	C409.657654,106.321083 409.631409,107.331596 409.235779,108.167213 
	C385.163818,159.008774 356.142365,206.518677 315.871094,246.414230 
	C311.498169,250.746338 306.857330,254.809402 302.311279,258.965027 
	C296.425629,264.345245 285.899261,266.141022 278.850250,262.253784 
	C276.392639,260.898499 273.670898,257.868500 273.304138,255.286041 
	C272.274139,248.033371 273.777985,241.240509 279.701721,235.854111 
	C292.880646,223.870712 305.837708,211.643326 318.879425,199.509140 
	C320.421997,198.073898 321.438446,196.502350 324.278503,198.030411 
	C335.540710,204.089874 346.745392,199.281525 352.227722,193.517502 
	C359.711395,185.649353 361.049255,175.868073 356.109955,165.394135 
	C355.829071,164.798553 355.565216,164.194946 355.088470,163.142761 
	C366.214233,151.231567 377.445496,139.207413 388.916443,126.921036 
z"/>
<path fill="#FBFEFF" opacity="1.000000" stroke="none" 
	d="
M341.007202,190.281281 
	C332.271149,192.450043 326.032440,190.380600 322.358490,184.366791 
	C319.100037,179.033066 319.797394,172.065659 324.073273,167.234787 
	C329.969269,160.573517 338.953857,160.178513 345.221893,166.304932 
	C351.376312,172.320282 351.321716,181.722305 345.023071,187.605606 
	C343.951355,188.606659 342.586395,189.293732 341.007202,190.281281 
z"/>
</svg>